<svg xmlns="http://www.w3.org/2000/svg" viewBox="0 0 64 64" width="64" height="64">
  <defs>
    <linearGradient id="bg2" x1="0%" y1="0%" x2="100%" y2="100%">
      <stop offset="0%" stop-color="#4c1d95"/>
      <stop offset="100%" stop-color="#9333ea"/>
    </linearGradient>
    <filter id="glow2" x="-25%" y="-25%" width="150%" height="150%">
      <feDropShadow dx="0" dy="3" stdDeviation="5" flood-color="#6d28d9" flood-opacity="0.55"/>
    </filter>
    <clipPath id="circle-clip">
      <circle cx="32" cy="32" r="18"/>
    </clipPath>
  </defs>
  <rect x="2" y="2" width="60" height="60" rx="13" fill="url(#bg2)" filter="url(#glow2)"/>
  <rect x="2" y="2" width="60" height="26" rx="13" fill="white" fill-opacity="0.07"/>
  <!-- GitHub Octocat path (simplified clean version) -->
  <path fill="white" d="
    M32 12
    C21.5 12 13 20.5 13 31
    C13 39.4 18.3 46.5 25.7 48.9
    C26.6 49.1 26.9 48.5 26.9 48
    L26.9 45.2
    C21.8 46.3 20.7 42.9 20.7 42.9
    C19.9 40.8 18.7 40.2 18.7 40.2
    C17.1 39.1 18.8 39.2 18.8 39.2
    C20.5 39.3 21.5 40.9 21.5 40.9
    C23.1 43.6 25.9 42.8 27 42.3
    C27.2 41.2 27.6 40.4 28.1 39.9
    C23.9 39.4 19.4 37.8 19.4 30.5
    C19.4 28.5 20.1 26.8 21.5 25.5
    C21.3 25 20.7 23.1 21.7 20.5
    C21.7 20.5 23.2 20 26.9 22.4
    C28.5 22 30.2 21.8 32 21.8
    C33.8 21.8 35.5 22 37.1 22.4
    C40.8 20 42.3 20.5 42.3 20.5
    C43.3 23.1 42.7 25 42.5 25.5
    C43.9 26.8 44.6 28.5 44.6 30.5
    C44.6 37.8 40.1 39.4 35.9 39.9
    C36.5 40.5 37 41.7 37 43.5
    L37 48
    C37 48.5 37.4 49.1 38.3 48.9
    C45.7 46.5 51 39.4 51 31
    C51 20.5 42.5 12 32 12 Z
  "/>
</svg>
