<svg xmlns="http://www.w3.org/2000/svg" xmlns:xlink="http://www.w3.org/1999/xlink" viewBox="0,0,256,256" width="96px" height="96px" fill-rule="nonzero"><g fill="#a855f7" fill-rule="nonzero" stroke="none" stroke-width="1" stroke-linecap="butt" stroke-linejoin="miter" stroke-miterlimit="10" stroke-dasharray="" stroke-dashoffset="0" font-family="none" font-weight="none" font-size="none" text-anchor="none" style="mix-blend-mode: normal"><g transform="scale(8,8)"><path d="M12.09766,3c0,0.50391 -0.19531,0.90625 -0.29297,1.30859c-0.09766,0.50391 -0.19531,0.91016 -0.29297,1.41406c-0.29297,1.10547 -0.58594,2.31641 -0.48828,3.82813c0.87891,0.20313 2.05469,0 2.83594,-0.10156c0.48828,0.30078 0.68359,0.80469 1.17188,1.10938c-0.09766,-0.60547 0.29297,-0.70703 0.58594,-0.80469c-0.09766,0.19922 -0.39062,0.40234 -0.29297,0.90625c0.19531,0.10156 0.19531,-0.20312 0.39063,-0.30469c0.19531,0.20313 0.48828,0.20313 0.68359,0c0.19531,0 0.09766,0.30469 0.29297,0.30469c0.19531,-0.30469 -0.09766,-0.70703 -0.19531,-0.90625c0.29297,0.19922 0.68359,0.30078 0.58594,0.80469c0.29297,-0.20312 0.68359,-0.70703 1.07422,-1.00781c0.87891,0.20313 1.95313,0.30078 2.93359,0.20313c0,-2.51953 -0.6875,-4.53516 -1.27344,-6.55078c0.19531,0 0.19531,0.19922 0.19531,0.30078c0.58594,1.30859 1.17188,2.92187 1.5625,4.53516c0.10156,0.20313 0.19531,0.60547 0.29297,0.90625c0.10156,0.30078 0.19531,0.80859 0.19531,0.90625c-0.09766,0.30469 -0.58594,0.50391 -0.78125,0.80859c-0.29297,-0.40234 -1.26953,-0.30469 -2.24609,-0.30469c-0.29297,0 -0.58594,-0.09766 -0.78125,0c-0.39062,0.10156 -0.48828,0.60547 -0.68359,0.91016c0.48828,0 0.87891,-0.50391 1.36719,-0.50391c0.29297,0 0.68359,0.19922 1.07422,0.30078c1.07422,0.30078 2.24609,0.50391 3.22266,0.80469c0.10156,-3.42578 -0.78125,-6.14453 -1.95312,-8.46484c1.17188,1.61328 1.85547,3.42578 2.44141,5.64453c0.09766,0.19922 0.09766,0.50391 0.19531,0.90625c0.09766,0.50391 0.09766,1.20703 0.39063,1.61328c-0.29297,0.40234 -0.78125,0.70313 -1.07422,1.00781c-0.97656,-0.60547 -2.92969,-1.51172 -4.58984,-1.3125c-0.39062,0 -0.78125,0.20313 -0.97656,0.50391c0.48828,0.20313 0.87891,0.20313 1.46484,0.20313c0.19531,0 0.39063,-0.10156 0.48828,0c0.09766,0 0.39063,0.30078 0.58594,0.50391c1.17188,1.21094 2.24609,2.11719 3.61328,3.02344c0.39063,0.30078 0.68359,0.60547 1.17188,0.20313c0.09766,4.03125 -0.97656,6.95313 -2.24609,9.67188c-0.19531,0.30469 -0.19531,0.70703 -0.48828,0.90625c0.97656,-2.31641 1.66016,-5.03906 1.66016,-8.26172c0,-0.30078 0.09766,-0.80469 0,-1.00781c-0.09766,-0.40234 -0.68359,-0.90625 -1.07422,-1.21094c-1.07422,-1.00781 -1.85547,-1.71094 -3.02734,-2.61719c-0.19531,-0.20312 -0.39062,-0.40625 -0.58594,-0.50391c-0.19531,-0.10156 -0.48828,-0.10156 -0.78125,-0.10156c-0.29297,0 -0.58594,-0.10156 -0.78516,-0.10156c0.48828,0.50391 1.17578,1.10938 1.76172,1.61328c0.09766,0.09766 0.19141,0 0.39063,0c0.19531,4.63281 -0.19531,9.26953 -1.46484,12.69531c-0.29297,0.80859 -0.6875,1.61328 -1.17187,2.21875c1.75781,-3.22656 1.85547,-8.76953 1.46484,-13.70703c0.39063,-0.30078 0.19531,-0.60547 -0.09766,-1.00781c-0.39453,-0.40234 -0.98047,-1.10937 -1.46875,-1.30859c0,0.20313 0,0.40234 0.10156,0.60547c0.09766,0.19922 0.29297,0.40234 0.29297,0.50391c0.09766,0.40234 -0.10156,1.20703 -0.19531,1.60938c-0.29297,1.41406 -0.78516,3.02344 -1.26953,4.13281c-0.19531,0 -0.10156,-0.30078 -0.19531,-0.40234c-0.19531,0 -0.09766,0.30078 -0.19531,0.40234c-0.58594,-1.00781 -1.07812,-2.61719 -1.26953,-4.13281c-0.10156,-0.50391 -0.19531,-1.20703 -0.19531,-1.60937c0.09766,-0.40234 0.48828,-0.70703 0.39063,-1.10937c-0.39062,0.10156 -0.68359,0.50391 -0.97656,0.80469c-0.29297,0.30469 -0.58594,0.70703 -0.78516,1.00781c0,0.20313 0.19531,0.20313 0.19531,0.40234c-0.29297,4.94141 -0.29297,10.48438 1.5625,13.70703c-0.19141,0 -0.29297,-0.30078 -0.39062,-0.40234c-1.46484,-2.72266 -1.85547,-7.05469 -2.05078,-11.48828c0,-1.00781 -0.09766,-1.91406 0,-2.92187c0,-0.20312 0.19531,0.10156 0.39063,0c0.68359,-0.50391 1.26953,-1.10937 1.85547,-1.61328c-0.48828,0.10156 -1.07422,0.10156 -1.5625,0.20313c-0.39062,0.20313 -0.87891,0.60547 -1.26953,1.00781c-1.17187,1.00781 -2.44141,2.11719 -3.41797,3.22266c-0.19531,3.73047 0.58594,6.75391 1.66016,9.375c-1.5625,-2.82422 -2.92969,-6.04687 -2.73438,-10.48047c0.58594,0.50391 1.36719,-0.30469 1.85547,-0.70703c1.17188,-0.90625 2.53906,-2.11719 3.41797,-3.125c0.68359,0.10156 1.46484,0 2.05469,-0.10156c-0.6875,-0.90625 -2.54297,-0.50391 -3.61719,-0.09766c-0.78125,0.19922 -1.46484,0.50391 -1.85547,0.90625c-0.48828,-0.30469 -0.78125,-0.70703 -1.17187,-1.00781c0.29297,-0.70703 0.39063,-2.01562 0.58594,-2.82422c0.58594,-2.11328 1.36719,-3.92969 2.44141,-5.64062c0,0.30078 -0.19531,0.60547 -0.39062,0.90625c-0.87891,2.01563 -1.46484,4.63672 -1.46484,7.55859c0.97656,-0.20312 2.05078,-0.50391 3.22266,-0.80859c0.39063,-0.09766 0.78516,-0.30078 0.97656,-0.30078c0.48828,0 0.87891,0.50391 1.37109,0.50391c-0.09766,-0.40234 -0.39062,-0.70312 -0.58594,-0.90625c-0.87891,0 -1.85547,-0.10156 -2.64062,0c0,0 -0.09766,0.10156 -0.19531,0.10156l-0.19531,0.20313c-0.19141,0 -0.68359,-0.60547 -0.78125,-0.70703c0.39063,-2.51953 1.26953,-4.63672 2.05078,-6.75391z"></path></g></g></svg>