<svg xmlns="http://www.w3.org/2000/svg" viewBox="0 0 64 64" width="64" height="64">
  <defs>
    <linearGradient id="bg" x1="0%" y1="0%" x2="100%" y2="100%">
      <stop offset="0%" stop-color="#5b21b6"/>
      <stop offset="100%" stop-color="#a855f7"/>
    </linearGradient>
    <filter id="glow" x="-25%" y="-25%" width="150%" height="150%">
      <feDropShadow dx="0" dy="3" stdDeviation="5" flood-color="#7c3aed" flood-opacity="0.55"/>
    </filter>
  </defs>
  <rect x="2" y="2" width="60" height="60" rx="13" fill="url(#bg)" filter="url(#glow)"/>
  <rect x="2" y="2" width="60" height="26" rx="13" fill="white" fill-opacity="0.07"/>
  <!-- Classic handset phone icon -->
  <path d="
    M20 14
    C20 14 17 17 16 21
    C15 25 16 29 19 32
    L26 39
    C29 42 33 43 37 42
    C41 41 44 38 44 38
    L40 34
    C40 34 38 32 36 34
    C35 35 34 36 33 36
    C31 36 28 34 26 32
    C24 30 22 27 22 25
    C22 24 23 23 24 22
    C26 20 24 18 24 18
    Z
  " fill="white" fill-rule="evenodd"/>
</svg>
